<svg width="48" height="48" viewBox="0 0 48 48" fill="none" xmlns="http://www.w3.org/2000/svg">
  <rect width="48" height="48" rx="8" fill="#1E293B"/>
  <path d="M19.32 32V19.2H24.16C25.84 19.2 27.16 19.6 28.12 20.4C29.08 21.2 29.56 22.32 29.56 23.76C29.56 25.2 29.08 26.32 28.12 27.12C27.16 27.92 25.84 28.32 24.16 28.32H22.4V32H19.32ZM22.4 25.76H24C24.56 25.76 25 25.6 25.32 25.28C25.64 24.96 25.8 24.48 25.8 23.92C25.8 23.36 25.64 22.88 25.32 22.56C25 22.24 24.56 22.08 24 22.08H22.4V25.76ZM31.0819 32V19.04H34.1619V32H31.0819Z" fill="#0EA5E9"/>
</svg>