<svg width="150" height="150" viewBox="0 0 150 150" fill="none" xmlns="http://www.w3.org/2000/svg">
  <rect width="150" height="150" rx="10" fill="#1E293B"/>
  <path d="M38.8 92V64H50.48C54.16 64 57.12 64.9333 59.36 66.8C61.6 68.64 62.72 71.2 62.72 74.48C62.72 77.76 61.6 80.3333 59.36 82.2C57.12 84.04 54.16 84.96 50.48 84.96H46.08V92H38.8ZM46.08 78.88H49.92C51.28 78.88 52.32 78.56 53.04 77.92C53.76 77.28 54.12 76.4 54.12 75.28C54.12 74.16 53.76 73.28 53.04 72.64C52.32 72 51.28 71.68 49.92 71.68H46.08V78.88ZM66.3575 92V63.2H73.6375V76.64H73.9975L82.7175 64H91.1975L81.5975 77.36L91.3575 92H82.7175L77.2375 83.04L73.6375 87.84V92H66.3575ZM93.7188 92V64H101.159L110.319 79.52H110.679V64H117.959V92H110.519L101.359 76.48H100.999V92H93.7188Z" fill="#0EA5E9"/>
</svg>